<svg width="62" height="54" viewBox="0 0 62 54" fill="none" xmlns="http://www.w3.org/2000/svg">
<rect x="29.5647" y="2.43396" width="30.4353" height="49.566" rx="3" stroke="black" stroke-width="4"/>
<circle cx="44.3998" cy="13.4428" r="3.82615" fill="black"/>
<circle cx="44.382" cy="34.7803" r="9.2115" stroke="black" stroke-width="4"/>
<path fill-rule="evenodd" clip-rule="evenodd" d="M2.30078 45.9703C2.57692 45.9703 2.80078 45.7465 2.80078 45.4703L2.80078 2.44666C2.80078 2.17051 2.57693 1.94666 2.30078 1.94666V1.94666C2.02464 1.94666 1.80078 2.17051 1.80078 2.44666L1.80078 45.4703C1.80078 45.7465 2.02464 45.9703 2.30078 45.9703V45.9703ZM2.80082 2.44668C2.80082 2.17054 3.02468 1.94668 3.30082 1.94668H23.8614C24.1375 1.94668 24.3614 2.17054 24.3614 2.44668V2.44668C24.3614 2.72282 24.1375 2.94668 23.8614 2.94668H3.30082C3.02468 2.94668 2.80082 2.72282 2.80082 2.44668V2.44668ZM2.80082 45.7931C2.80082 45.5169 3.02468 45.2931 3.30082 45.2931H23.8614C24.1375 45.2931 24.3614 45.5169 24.3614 45.7931V45.7931C24.3614 46.0692 24.1375 46.2931 23.8614 46.2931H3.30082C3.02468 46.2931 2.80082 46.0692 2.80082 45.7931V45.7931Z" fill="black"/>
<path d="M1.80078 45.4703L0.300781 45.4703L1.80078 45.4703ZM1.30078 2.44666L1.30078 45.4703L4.30078 45.4703L4.30078 2.44666L1.30078 2.44666ZM3.30078 45.4703L3.30078 2.44666L0.300783 2.44666L0.300781 45.4703L3.30078 45.4703ZM23.8614 0.446682H3.30082V3.44668H23.8614V0.446682ZM3.30082 4.44668H23.8614V1.44668H3.30082V4.44668ZM23.8614 43.7931H3.30082V46.7931H23.8614V43.7931ZM3.30082 47.7931H23.8614V44.7931H3.30082V47.7931ZM3.30082 44.7931C3.8531 44.7931 4.30082 45.2408 4.30082 45.7931H1.30082C1.30082 46.8977 2.19625 47.7931 3.30082 47.7931V44.7931ZM22.8614 45.7931C22.8614 45.2408 23.3091 44.7931 23.8614 44.7931V47.7931C24.966 47.7931 25.8614 46.8977 25.8614 45.7931H22.8614ZM3.30082 43.7931C2.19625 43.7931 1.30082 44.6885 1.30082 45.7931H4.30082C4.30082 46.3454 3.8531 46.7931 3.30082 46.7931V43.7931ZM23.8614 46.7931C23.3091 46.7931 22.8614 46.3454 22.8614 45.7931H25.8614C25.8614 44.6885 24.966 43.7931 23.8614 43.7931V46.7931ZM3.30082 1.44668C3.8531 1.44668 4.30082 1.8944 4.30082 2.44668H1.30082C1.30082 3.55125 2.19625 4.44668 3.30082 4.44668V1.44668ZM22.8614 2.44668C22.8614 1.8944 23.3091 1.44668 23.8614 1.44668V4.44668C24.966 4.44668 25.8614 3.55125 25.8614 2.44668H22.8614ZM3.30082 0.446682C2.19625 0.446682 1.30082 1.34211 1.30082 2.44668H4.30082C4.30082 2.99897 3.8531 3.44668 3.30082 3.44668V0.446682ZM23.8614 3.44668C23.3091 3.44668 22.8614 2.99897 22.8614 2.44668H25.8614C25.8614 1.34211 24.966 0.446682 23.8614 0.446682V3.44668ZM0.300781 45.4703C0.300781 46.5749 1.19621 47.4703 2.30078 47.4703V44.4703C2.85307 44.4703 3.30078 44.918 3.30078 45.4703L0.300781 45.4703ZM2.30078 0.446655C1.19621 0.446655 0.300784 1.34209 0.300783 2.44666L3.30078 2.44666C3.30078 2.99894 2.85307 3.44666 2.30078 3.44666L2.30078 0.446655ZM1.30078 45.4703C1.30078 44.918 1.74849 44.4703 2.30078 44.4703V47.4703C3.40535 47.4703 4.30078 46.5749 4.30078 45.4703L1.30078 45.4703ZM4.30078 2.44666C4.30078 1.34209 3.40535 0.446655 2.30078 0.446655L2.30078 3.44666C1.7485 3.44666 1.30078 2.99894 1.30078 2.44666L4.30078 2.44666Z" fill="black"/>
<path d="M25 49H14C12.8954 49 12 49.8954 12 51V52C12 53.1046 12.8954 54 14 54H25V49Z" fill="black"/>
</svg>
